<?xml version="1.0" encoding="utf-8"?>
<!-- Generator: Adobe Illustrator 21.0.0, SVG Export Plug-In . SVG Version: 6.00 Build 0)  -->
<svg version="1.1" id="Capa_1" xmlns="http://www.w3.org/2000/svg" xmlns:xlink="http://www.w3.org/1999/xlink" x="0px" y="0px"
	 viewBox="0 0 142 97.4" style="enable-background:new 0 0 142 97.4;" xml:space="preserve">
<style type="text/css">
	.st0{fill:#5A45EA;}
</style>
<g>
	<g>
		<path class="st0" d="M0,19.9h13.2l10.2,25.4l10.7-25.4h18.3v51.4c0,0-7.7-5.5-9.4-7.2S40.6,37,40.6,37L26.2,66.8l-5.6,0.2L0,19.9z
			"/>
		<ellipse class="st0" cx="47.2" cy="10.4" rx="6.3" ry="5.2"/>
		<g>
			<polygon class="st0" points="56.6,20.9 69.8,20.9 84.8,54 111,0 122.8,0.8 86.8,78.3 82.6,78.3 			"/>
			<g>
				<path class="st0" d="M128.8,64.5c-6,2.2-11.5,2.1-16.6-0.2c-5.1-2.3-8.8-6.5-11-12.6l-0.4-1.1c-1.5-4.1-2-8-1.6-11.9
					c0.4-3.8,1.7-7.1,4-9.9c2.3-2.8,5.3-4.9,9-6.2c5.6-2,10.6-1.9,15.1,0.5c4.5,2.4,7.9,6.8,10.3,13.2l1.6,4.5l-26,9.5
					c1.3,2.5,3.2,4.3,5.5,5.3c2.4,1,4.9,1,7.6,0c4.2-1.5,6.9-4.2,8.2-8.1l7.5,4c-0.8,2.9-2.3,5.5-4.7,7.8
					C135.1,61.5,132.2,63.3,128.8,64.5z M115.4,31.4c-2.2,0.8-3.6,2.2-4.5,4.1c-0.8,2-0.9,4.4-0.3,7.2l15.2-5.5l-0.3-0.9
					c-0.9-2.4-2.3-4-4-4.9C119.7,30.6,117.7,30.6,115.4,31.4z"/>
			</g>
		</g>
	</g>
	<g>
		<path class="st0" d="M15.7,90.4H5.5v0.1c0,1.6,0.4,2.8,1.3,3.6c0.8,0.8,2,1.3,3.5,1.3c0.8,0,1.4-0.1,2-0.2
			c0.6-0.1,1.2-0.3,1.9-0.6l0.5,1.9c-0.6,0.3-1.3,0.5-2.1,0.6c-0.8,0.2-1.6,0.2-2.5,0.2c-1,0-2-0.1-2.9-0.4
			c-0.9-0.3-1.7-0.7-2.4-1.3c-0.7-0.6-1.2-1.3-1.6-2.3c-0.4-0.9-0.6-2-0.6-3.3c0-1.1,0.2-2.1,0.5-3s0.8-1.7,1.4-2.3s1.3-1.1,2.2-1.5
			c0.8-0.3,1.8-0.5,2.9-0.5c0.9,0,1.7,0.1,2.4,0.4c0.7,0.3,1.4,0.7,1.9,1.3s0.9,1.2,1.2,1.9c0.3,0.8,0.4,1.6,0.4,2.5
			C15.7,89,15.7,90.4,15.7,90.4z M12.9,88.5c0-0.5-0.1-1-0.2-1.5c-0.1-0.4-0.3-0.8-0.6-1.2s-0.6-0.6-1-0.8c-0.4-0.2-0.9-0.3-1.5-0.3
			c-1.1,0-2,0.4-2.7,1.1c-0.7,0.7-1.1,1.6-1.3,2.8L12.9,88.5z"/>
		<path class="st0" d="M27.1,83H30l-5.3,14.1h-2.6L16.8,83h2.9l3.2,9.7l0.5,2.2h0.1l0.5-2.2L27.1,83z"/>
		<path class="st0" d="M45,89.9c0,1.2-0.2,2.2-0.5,3.2c-0.4,0.9-0.9,1.7-1.5,2.4c-0.6,0.6-1.4,1.1-2.2,1.5S39,97.4,38,97.4
			s-1.9-0.2-2.7-0.5s-1.5-0.8-2.2-1.4c-0.6-0.6-1.1-1.4-1.4-2.3c-0.4-0.9-0.5-1.9-0.5-3.1c0-1.2,0.2-2.2,0.5-3.1s0.9-1.7,1.5-2.3
			c0.6-0.6,1.4-1.1,2.2-1.4s1.8-0.5,2.7-0.5s1.9,0.1,2.7,0.4c0.8,0.3,1.5,0.8,2.2,1.3c0.6,0.6,1.1,1.3,1.4,2.2S45,88.7,45,89.9z
			 M42.2,90.1c0-0.9-0.1-1.7-0.4-2.4s-0.6-1.2-0.9-1.6c-0.4-0.4-0.8-0.7-1.3-0.9s-1-0.3-1.5-0.3c-0.5,0-1,0.1-1.5,0.2
			s-0.9,0.4-1.3,0.8s-0.7,0.9-0.9,1.6S34,89,34,90.1c0,0.9,0.1,1.7,0.4,2.4s0.6,1.2,0.9,1.6c0.4,0.4,0.8,0.7,1.3,0.9s1,0.3,1.5,0.3
			s1-0.1,1.5-0.3s0.9-0.5,1.3-0.9c0.4-0.4,0.7-0.9,0.9-1.6C42.1,91.9,42.2,91.1,42.2,90.1z"/>
		<path class="st0" d="M48.3,97.1V75.8h2.6v21.3H48.3z"/>
		<path class="st0" d="M64.6,83h2.6v14.1h-2.1l-0.4-1.8h-0.1c-0.5,0.6-1.2,1.1-1.9,1.5c-0.8,0.4-1.7,0.6-2.7,0.6
			c-1.5,0-2.6-0.4-3.6-1.2s-1.4-2.1-1.4-3.8V83h2.6v9c0,0.6,0.1,1.1,0.2,1.5c0.2,0.4,0.3,0.8,0.6,1c0.3,0.3,0.5,0.4,0.9,0.5
			s0.7,0.2,1.1,0.2c0.8,0,1.5-0.2,2.2-0.5c0.6-0.3,1.3-0.8,1.8-1.4L64.6,83L64.6,83z"/>
		<path class="st0" d="M78,95.3c0.6,0,1.2-0.1,1.7-0.2s0.9-0.3,1.4-0.5l0.6,2c-1.1,0.5-2.4,0.8-3.9,0.8c-1,0-2-0.1-2.9-0.4
			c-0.9-0.3-1.7-0.8-2.3-1.4c-0.7-0.6-1.2-1.4-1.6-2.3c-0.4-0.9-0.6-2-0.6-3.2c0-1.1,0.2-2.1,0.5-3c0.4-0.9,0.9-1.7,1.5-2.3
			s1.4-1.1,2.3-1.5s1.9-0.5,3-0.5c0.6,0,1.2,0,1.8,0.1c0.6,0.1,1.3,0.3,2,0.6l-0.6,2c-0.9-0.5-1.9-0.8-3-0.8c-1.5,0-2.6,0.5-3.5,1.4
			c-0.9,0.9-1.3,2.2-1.3,3.8c0,1,0.1,1.9,0.4,2.6c0.3,0.7,0.6,1.2,1.1,1.6c0.5,0.4,1,0.7,1.6,0.9C76.8,95.2,77.4,95.3,78,95.3z"/>
		<path class="st0" d="M85,97.1V83h2.6v14.1H85z"/>
		<path class="st0" d="M104.8,89.9c0,1.2-0.2,2.2-0.5,3.2c-0.4,0.9-0.9,1.7-1.5,2.4c-0.6,0.6-1.4,1.1-2.2,1.5
			c-0.8,0.3-1.8,0.5-2.7,0.5s-1.9-0.2-2.7-0.5c-0.8-0.3-1.6-0.8-2.2-1.4c-0.6-0.6-1.1-1.4-1.4-2.3c-0.3-0.9-0.5-1.9-0.5-3.1
			c0-1.2,0.2-2.2,0.5-3.1s0.9-1.7,1.5-2.3c0.6-0.6,1.4-1.1,2.2-1.4c0.8-0.3,1.8-0.5,2.7-0.5s1.9,0.1,2.7,0.4
			c0.8,0.3,1.6,0.8,2.2,1.3c0.6,0.6,1.1,1.3,1.4,2.2C104.7,87.7,104.8,88.7,104.8,89.9z M102.1,90.1c0-0.9-0.1-1.7-0.4-2.4
			c-0.2-0.7-0.6-1.2-0.9-1.6c-0.4-0.4-0.8-0.7-1.3-0.9s-1-0.3-1.5-0.3c-0.5,0-1,0.1-1.5,0.2s-0.9,0.4-1.3,0.8
			c-0.4,0.4-0.7,0.9-0.9,1.6c-0.2,0.7-0.3,1.5-0.3,2.5c0,0.9,0.1,1.7,0.4,2.4s0.6,1.2,0.9,1.6c0.4,0.4,0.8,0.7,1.3,0.9
			s1,0.3,1.5,0.3c0.5,0,1-0.1,1.5-0.3s0.9-0.5,1.3-0.9c0.4-0.4,0.7-0.9,0.9-1.6C102,91.9,102.1,91.1,102.1,90.1z"/>
		<path class="st0" d="M112.2,97.1h-4.4V82.7h3.4l0.5,1.8c0.6-0.7,1.4-1.2,2.2-1.6c0.8-0.4,1.7-0.6,2.6-0.6c1.6,0,2.9,0.4,3.7,1.3
			c0.9,0.9,1.3,2.2,1.3,3.9v9.5h-4.4V88c0-0.7-0.2-1.3-0.5-1.7s-0.8-0.6-1.5-0.6c-0.5,0-1,0.1-1.5,0.4c-0.5,0.3-1,0.7-1.4,1.1
			L112.2,97.1L112.2,97.1z"/>
		<path class="st0" d="M125.1,84c0.8-0.5,1.7-0.9,2.8-1.2c1-0.3,2.1-0.4,3.2-0.4c1.8,0,3.2,0.4,4.3,1.3c1.1,0.9,1.6,2.2,1.6,4.1v9.3
			h-3.4l-0.4-1.4H133c-0.4,0.5-1,0.9-1.7,1.3c-0.7,0.3-1.5,0.5-2.5,0.5c-0.8,0-1.5-0.1-2.1-0.4c-0.6-0.2-1.1-0.6-1.5-1
			c-0.4-0.4-0.7-0.9-0.9-1.4c-0.2-0.6-0.3-1.1-0.3-1.8c0-0.8,0.2-1.6,0.6-2.2c0.4-0.6,0.9-1.1,1.5-1.5c0.6-0.4,1.4-0.7,2.2-0.8
			c0.9-0.2,1.8-0.3,2.7-0.3h1.5v-0.8c0-0.5-0.2-1-0.6-1.2s-0.9-0.4-1.6-0.4c-0.6,0-1.2,0.1-1.8,0.3s-1.2,0.5-1.9,0.9L125.1,84z
			 M132.5,90.9l-1,0c-0.6,0-1,0.1-1.4,0.2c-0.4,0.1-0.7,0.2-0.9,0.4c-0.2,0.2-0.4,0.3-0.5,0.5c-0.1,0.2-0.1,0.4-0.1,0.6
			c0,0.6,0.2,1,0.6,1.3c0.4,0.2,0.8,0.3,1.3,0.3c0.5,0,0.9-0.1,1.3-0.4c0.4-0.3,0.7-0.6,0.8-0.9L132.5,90.9L132.5,90.9z"/>
	</g>
</g>
</svg>
