<?xml version="1.0" encoding="utf-8"?>
<!-- Generator: Adobe Illustrator 21.0.0, SVG Export Plug-In . SVG Version: 6.00 Build 0)  -->
<svg version="1.1" id="Capa_1" xmlns="http://www.w3.org/2000/svg" xmlns:xlink="http://www.w3.org/1999/xlink" x="0px" y="0px"
	 viewBox="0 0 2301 1284" style="enable-background:new 0 0 2301 1284;" xml:space="preserve">
<style type="text/css">
	.st0{fill:#E0DADA;}
	.st1{fill:#A4AEFF;}
	.st2{fill:#F13190;}
	.st3{fill:#5A45EA;}
	.st4{fill:#A9A9E0;}
	.st5{fill:#9595E5;}
	.st6{fill:#7C7CDD;}
	.st7{fill:#6868E0;}
	.st8{fill:#5F55E5;}
	.st9{fill:#BABAD8;}
</style>
<g>
	
		<rect x="865" y="2635.8" transform="matrix(0.7589 -0.6512 0.6512 0.7589 -1580.767 1878.532)" class="st0" width="1763.7" height="876.9"/>
</g>
<g>
	
		<rect x="940.5" y="2962.7" transform="matrix(0.7589 -0.6512 0.6512 0.7589 -1807.959 1645.7463)" class="st1" width="756.5" height="604.2"/>
</g>
<g>
	
		<rect x="353.6" y="2573.3" transform="matrix(0.7589 -0.6512 0.6512 0.7589 -1423.8466 1526.3159)" class="st2" width="1992" height="225.9"/>
</g>
<g>
	
		<rect x="-745.5" y="2096.3" transform="matrix(0.7589 -0.6512 0.6512 0.7589 -1538.15 670.349)" class="st0" width="1763.7" height="632.7"/>
</g>
<g>
	
		<rect x="1730.8" y="2309.9" transform="matrix(0.7589 -0.6512 0.6512 0.7589 -1244.4236 2010.6541)" class="st3" width="725.2" height="752.4"/>
</g>
<g>
	<polygon class="st4" points="2644.3,1014.7 2160.6,1419.4 670.3,-274.7 1153.9,-679.4 	"/>
</g>
<g>
	<polygon class="st5" points="2308.2,1246.1 1791.6,1610 451.6,-199.6 968.2,-563.5 	"/>
</g>
<g>
	<polygon class="st3" points="782.3,1929.8 167.7,2094.3 -438,-58.3 176.6,-222.7 	"/>
</g>
<g>
	<polygon class="st6" points="1919,1449.7 1367.1,1760.4 222.7,-172.7 774.6,-483.4 	"/>
</g>
<g>
	<polygon class="st7" points="1586,1614.4 1008.7,1877.8 38.8,-144 616.1,-407.4 	"/>
</g>
<g>
	<polygon class="st8" points="1228.7,1774.4 633.3,1995.8 -182,-90 413.5,-311.4 	"/>
</g>
<g>
	<polygon class="st9" points="3042,721.4 2591.4,1160.8 973,-417.5 1423.6,-857 	"/>
</g>
</svg>
