<?xml version="1.0" encoding="utf-8"?>
<!-- Generator: Adobe Illustrator 16.0.3, SVG Export Plug-In . SVG Version: 6.00 Build 0)  -->
<!DOCTYPE svg PUBLIC "-//W3C//DTD SVG 1.1//EN" "http://www.w3.org/Graphics/SVG/1.1/DTD/svg11.dtd">
<svg version="1.1" id="Capa_1" xmlns="http://www.w3.org/2000/svg" xmlns:xlink="http://www.w3.org/1999/xlink" x="0px" y="0px"
	 width="142.045px" height="97.433px" viewBox="0 0 142.045 97.433" enable-background="new 0 0 142.045 97.433"
	 xml:space="preserve">
<g>
	<g>
		<path fill="#FFFFFF" d="M0,19.885h13.239L23.436,45.29l10.652-25.405H52.35v51.437c0,0-7.711-5.499-9.436-7.214
			s-2.282-27.13-2.282-27.13L26.175,66.773l-5.631,0.156L0,19.885z"/>
		<ellipse fill="#FFFFFF" cx="47.176" cy="10.45" rx="6.315" ry="5.174"/>
		<g>
			<polygon fill="#FFFFFF" points="56.61,20.9 69.799,20.9 84.814,53.973 110.99,0 122.758,0.812 86.843,78.322 82.582,78.322 			
				"/>
			<g>
				<path fill="#FFFFFF" d="M128.809,64.505c-5.982,2.178-11.52,2.116-16.614-0.187c-5.094-2.303-8.752-6.509-10.975-12.617
					l-0.385-1.055c-1.491-4.097-2.034-8.05-1.625-11.855c0.408-3.807,1.745-7.113,4.013-9.916c2.269-2.804,5.261-4.882,8.982-6.237
					c5.579-2.031,10.614-1.87,15.099,0.482c4.486,2.354,7.905,6.759,10.257,13.22l1.619,4.45L113.2,50.245
					c1.322,2.537,3.161,4.287,5.519,5.25c2.358,0.964,4.895,0.951,7.609-0.037c4.197-1.528,6.924-4.242,8.181-8.144l7.536,4.046
					c-0.793,2.908-2.348,5.516-4.666,7.826C135.059,61.496,132.203,63.27,128.809,64.505z M115.365,31.438
					c-2.164,0.787-3.649,2.157-4.461,4.111c-0.813,1.955-0.909,4.363-0.295,7.227l15.158-5.517l-0.317-0.871
					c-0.933-2.406-2.269-4.042-4.008-4.911C119.703,30.609,117.676,30.596,115.365,31.438z"/>
			</g>
		</g>
	</g>
	<g>
		<path fill="#FFFFFF" d="M15.656,90.353H5.546v0.121c0,1.56,0.424,2.76,1.275,3.6c0.85,0.84,2.005,1.26,3.465,1.26
			c0.76,0,1.435-0.061,2.025-0.18c0.59-0.12,1.235-0.32,1.935-0.6l0.54,1.949c-0.58,0.26-1.265,0.471-2.055,0.63
			c-0.791,0.16-1.635,0.24-2.535,0.24c-1.02,0-1.976-0.14-2.865-0.42c-0.89-0.28-1.675-0.715-2.355-1.306
			c-0.68-0.59-1.215-1.344-1.605-2.265c-0.39-0.919-0.585-2.02-0.585-3.3c0-1.1,0.165-2.1,0.495-3s0.795-1.665,1.395-2.295
			s1.325-1.12,2.175-1.471c0.85-0.35,1.805-0.524,2.865-0.524c0.9,0,1.714,0.149,2.445,0.45c0.73,0.3,1.355,0.72,1.875,1.26
			s0.92,1.19,1.2,1.95c0.28,0.761,0.42,1.601,0.42,2.521V90.353z M12.926,88.463c0-0.52-0.065-1.005-0.195-1.455
			c-0.13-0.45-0.33-0.845-0.6-1.185s-0.615-0.609-1.035-0.811c-0.42-0.199-0.93-0.3-1.53-0.3c-1.101,0-1.995,0.351-2.685,1.05
			c-0.69,0.701-1.115,1.62-1.275,2.76L12.926,88.463z"/>
		<path fill="#FFFFFF" d="M27.146,83.003h2.82l-5.25,14.1h-2.58l-5.31-14.1h2.85l3.18,9.689l0.54,2.221h0.12l0.51-2.189
			L27.146,83.003z"/>
		<path fill="#FFFFFF" d="M44.997,89.903c0,1.18-0.18,2.234-0.54,3.164c-0.36,0.931-0.855,1.716-1.485,2.355
			c-0.63,0.641-1.365,1.125-2.205,1.455c-0.84,0.33-1.75,0.495-2.73,0.495s-1.885-0.155-2.715-0.465
			c-0.83-0.31-1.55-0.771-2.16-1.38c-0.61-0.61-1.09-1.36-1.44-2.25c-0.35-0.891-0.525-1.915-0.525-3.075
			c0-1.181,0.18-2.229,0.54-3.149s0.855-1.695,1.485-2.326c0.63-0.629,1.365-1.109,2.205-1.439c0.84-0.33,1.75-0.495,2.73-0.495
			s1.885,0.149,2.715,0.45c0.83,0.3,1.549,0.75,2.16,1.35c0.61,0.6,1.09,1.346,1.44,2.235S44.997,88.743,44.997,89.903z
			 M42.237,90.054c0-0.94-0.12-1.74-0.36-2.4c-0.24-0.66-0.555-1.2-0.945-1.62c-0.39-0.421-0.835-0.726-1.335-0.915
			s-1.01-0.285-1.53-0.285c-0.521,0-1.03,0.08-1.53,0.24s-0.94,0.439-1.32,0.84s-0.685,0.936-0.915,1.605s-0.345,1.515-0.345,2.535
			c0,0.939,0.12,1.744,0.36,2.414c0.24,0.67,0.555,1.215,0.945,1.635c0.39,0.42,0.835,0.73,1.335,0.931s1.01,0.3,1.53,0.3
			c0.52,0,1.03-0.085,1.53-0.255s0.94-0.46,1.32-0.87c0.379-0.41,0.685-0.949,0.915-1.62C42.122,91.918,42.237,91.073,42.237,90.054
			z"/>
		<path fill="#FFFFFF" d="M48.327,97.103V75.804h2.58v21.299H48.327z"/>
		<path fill="#FFFFFF" d="M64.557,83.003h2.64v14.1h-2.07l-0.36-1.77h-0.12c-0.521,0.58-1.166,1.064-1.935,1.455
			c-0.77,0.391-1.665,0.585-2.685,0.585c-1.46,0-2.645-0.415-3.555-1.245s-1.365-2.085-1.365-3.766v-9.359h2.64v9.03
			c0,0.6,0.075,1.11,0.225,1.53c0.15,0.42,0.35,0.755,0.6,1.004c0.25,0.251,0.545,0.432,0.885,0.541
			c0.34,0.109,0.709,0.164,1.11,0.164c0.8,0,1.52-0.169,2.16-0.51c0.64-0.34,1.25-0.81,1.83-1.41V83.003z"/>
		<path fill="#FFFFFF" d="M77.966,95.333c0.64,0,1.2-0.07,1.68-0.21c0.48-0.14,0.95-0.319,1.41-0.54l0.57,1.98
			c-1.08,0.539-2.37,0.81-3.87,0.81c-1.021,0-1.976-0.149-2.865-0.45c-0.89-0.3-1.67-0.754-2.34-1.365
			c-0.67-0.609-1.195-1.369-1.575-2.279c-0.38-0.91-0.57-1.975-0.57-3.195c0-1.119,0.18-2.13,0.54-3.029
			c0.36-0.9,0.86-1.666,1.5-2.296c0.64-0.63,1.411-1.114,2.31-1.454s1.89-0.511,2.97-0.511c0.62,0,1.225,0.045,1.815,0.136
			c0.589,0.09,1.265,0.305,2.024,0.645l-0.6,2.01c-0.92-0.52-1.91-0.779-2.971-0.779c-1.459,0-2.639,0.455-3.539,1.364
			c-0.9,0.91-1.35,2.186-1.35,3.825c0,1.02,0.139,1.87,0.42,2.55c0.279,0.681,0.648,1.226,1.109,1.636
			c0.46,0.41,0.98,0.704,1.561,0.885C76.776,95.243,77.366,95.333,77.966,95.333z"/>
		<path fill="#FFFFFF" d="M84.956,97.103v-14.1h2.64v14.1H84.956z"/>
		<path fill="#FFFFFF" d="M104.845,89.903c0,1.18-0.18,2.234-0.539,3.164c-0.361,0.931-0.855,1.716-1.486,2.355
			c-0.629,0.641-1.364,1.125-2.204,1.455c-0.841,0.33-1.751,0.495-2.73,0.495s-1.886-0.155-2.715-0.465
			c-0.83-0.31-1.55-0.771-2.16-1.38c-0.61-0.61-1.09-1.36-1.44-2.25c-0.35-0.891-0.524-1.915-0.524-3.075
			c0-1.181,0.181-2.229,0.54-3.149s0.855-1.695,1.484-2.326c0.631-0.629,1.365-1.109,2.205-1.439c0.841-0.33,1.75-0.495,2.73-0.495
			s1.885,0.149,2.715,0.45c0.83,0.3,1.55,0.75,2.16,1.35c0.609,0.6,1.09,1.346,1.439,2.235
			C104.67,87.718,104.845,88.743,104.845,89.903z M102.085,90.054c0-0.94-0.12-1.74-0.359-2.4c-0.24-0.66-0.556-1.2-0.945-1.62
			c-0.391-0.421-0.836-0.726-1.336-0.915s-1.01-0.285-1.529-0.285c-0.521,0-1.03,0.08-1.53,0.24s-0.94,0.439-1.319,0.84
			c-0.381,0.4-0.686,0.936-0.916,1.605c-0.229,0.67-0.344,1.515-0.344,2.535c0,0.939,0.119,1.744,0.359,2.414
			s0.555,1.215,0.945,1.635c0.39,0.42,0.834,0.73,1.334,0.931s1.01,0.3,1.531,0.3c0.52,0,1.029-0.085,1.529-0.255
			s0.939-0.46,1.32-0.87c0.379-0.41,0.685-0.949,0.915-1.62C101.97,91.918,102.085,91.073,102.085,90.054z"/>
		<path fill="#FFFFFF" d="M112.194,97.103h-4.439V82.703h3.449l0.511,1.8c0.64-0.66,1.36-1.18,2.159-1.561
			c0.801-0.379,1.67-0.569,2.611-0.569c1.619,0,2.859,0.44,3.719,1.319c0.86,0.881,1.291,2.171,1.291,3.871v9.539h-4.44v-9.09
			c0-0.699-0.165-1.254-0.495-1.664s-0.814-0.615-1.455-0.615c-0.48,0-0.985,0.14-1.515,0.42c-0.53,0.279-0.995,0.65-1.396,1.109
			V97.103z"/>
		<path fill="#FFFFFF" d="M125.095,83.963c0.82-0.479,1.744-0.864,2.775-1.155c1.029-0.289,2.084-0.435,3.164-0.435
			c1.78,0,3.211,0.431,4.291,1.29c1.079,0.859,1.619,2.23,1.619,4.109v9.33h-3.39l-0.39-1.439h-0.121
			c-0.4,0.52-0.955,0.945-1.664,1.275c-0.711,0.33-1.545,0.494-2.506,0.494c-0.82,0-1.535-0.119-2.145-0.359
			c-0.61-0.24-1.115-0.561-1.516-0.961c-0.4-0.398-0.705-0.874-0.914-1.424c-0.211-0.551-0.315-1.135-0.315-1.756
			c0-0.84,0.185-1.56,0.556-2.16c0.369-0.6,0.869-1.09,1.5-1.469c0.629-0.381,1.369-0.66,2.219-0.841
			c0.851-0.18,1.756-0.271,2.716-0.271h1.5v-0.779c0-0.54-0.19-0.955-0.57-1.245s-0.92-0.435-1.62-0.435
			c-0.6,0-1.189,0.09-1.77,0.27s-1.221,0.471-1.92,0.87L125.095,83.963z M132.505,90.894l-0.99,0.029
			c-0.561,0.021-1.03,0.08-1.41,0.18c-0.381,0.101-0.686,0.226-0.915,0.375c-0.229,0.15-0.396,0.33-0.495,0.541
			c-0.1,0.209-0.15,0.425-0.15,0.645c0,0.62,0.186,1.045,0.556,1.275c0.37,0.229,0.795,0.345,1.274,0.345
			c0.48,0,0.916-0.14,1.306-0.421c0.39-0.279,0.665-0.589,0.825-0.93V90.894z"/>
	</g>
</g>
</svg>
